<svg width="32" height="32" viewBox="0 0 32 32" fill="none" xmlns="http://www.w3.org/2000/svg">
<rect width="32" height="32" rx="16" fill="#C6C6C6"/>
<rect x="6.5" y="6.5" width="19" height="19" rx="3.5" stroke="white"/>
<path d="M6 10C6 7.79086 7.79086 6 10 6H22C24.2091 6 26 7.79086 26 10V11H6V10Z" fill="white"/>
<path d="M16 10L16 26" stroke="white"/>
<path d="M10.5 13.8889C10.5 13.398 10.898 13 11.3889 13H11.6111C12.102 13 12.5 13.398 12.5 13.8889V22.1111C12.5 22.602 12.102 23 11.6111 23H11.3889C10.898 23 10.5 22.602 10.5 22.1111V13.8889Z" fill="white"/>
<path d="M20 13.8889C20 13.398 20.398 13 20.8889 13H21.1111C21.602 13 22 13.398 22 13.8889V22.1111C22 22.602 21.602 23 21.1111 23H20.8889C20.398 23 20 22.602 20 22.1111V13.8889Z" fill="white"/>
</svg>
