
<svg width="220" height="59" viewBox="0 0 220 59" fill="none" xmlns="http://www.w3.org/2000/svg">
<path d="M0 6.3C0 3.09675 2.59675 0.5 5.8 0.5H52.2C55.4033 0.5 58 3.09675 58 6.3V52.7C58 55.9033 55.4033 58.5 52.2 58.5H5.8C2.59675 58.5 0 55.9033 0 52.7V6.3Z" fill="#FF6A00"/>
<path d="M41.2322 11.2262C40.9114 10.487 40.0499 10.054 39.2096 10.3308L37.8537 10.7763C37.8437 10.7794 37.8329 10.783 37.823 10.7861L19.0568 16.9582C18.949 16.9938 18.843 17.0348 18.7415 17.0811C17.4848 17.7001 17.5624 19.5857 18.9715 20.0494L18.9724 20.0503L26.8296 22.6342L34.4878 20.1202C35.053 19.9346 35.6358 20.3498 35.6358 20.9372V26.2505C35.6358 26.9919 35.1545 27.6501 34.4413 27.8842L31.545 28.8348V37.0665L39.1252 34.5739C40.4613 34.1338 41.3625 32.9001 41.3625 31.5107V11.8622C41.3625 11.6339 41.3156 11.4198 41.2317 11.2262H41.2322Z" fill="white" fill-opacity="0.7"/>
<path d="M29.3095 23.4485L18.9737 20.0498L18.9728 20.0489C17.5632 19.5852 17.4861 17.6996 18.7428 17.0806C17.5817 17.5981 16.8203 18.7432 16.8203 20.0209V41.2293C16.8203 42.6196 17.7215 43.8532 19.0576 44.2925L29.3934 47.6912C30.4525 48.0401 31.5468 47.2617 31.5468 46.1598V26.5117C31.5468 25.1223 30.6455 23.8878 29.3095 23.4485Z" fill="white"/>
<path opacity="0.5" d="M18.9716 16.986C18.8898 17.0127 18.813 17.0443 18.7412 17.0808C18.8429 17.0346 18.9486 16.9936 19.057 16.958L18.9716 16.986Z" fill="white"/>
<path d="M72.7062 41H68V17.9771H77.411C78.274 17.9771 79.105 18.0878 79.9025 18.3086C80.7 18.53 81.4459 18.8423 82.1402 19.2467C82.8345 19.6511 83.4682 20.136 84.0426 20.702C84.6163 21.2681 85.1078 21.896 85.5184 22.5866C85.9283 23.2771 86.2448 24.0158 86.4686 24.8026C86.693 25.5901 86.8046 26.4093 86.8046 27.2614C86.8046 28.5338 86.5585 29.734 86.067 30.8599C85.5749 31.9872 84.9036 32.9707 84.0503 33.8119C83.1984 34.653 82.2009 35.3161 81.0583 35.8016C79.9164 36.2872 78.7007 36.5293 77.411 36.5293H72.7055L72.7062 41ZM72.7062 22.6189V31.9033H77.4117C78.0565 31.9033 78.6623 31.7822 79.2312 31.5394C79.7993 31.2967 80.297 30.9652 80.7237 30.5449C81.1496 30.124 81.4856 29.6308 81.7317 29.0648C81.9778 28.4988 82.1005 27.8976 82.1005 27.2614C82.1005 26.6252 81.9778 26.0241 81.7317 25.4581C81.4856 24.8913 81.1496 24.3982 80.7237 23.978C80.297 23.557 79.7993 23.2255 79.2312 22.9827C78.663 22.7406 78.0565 22.6189 77.4117 22.6189H72.7062Z" fill="#2C2C2C"/>
<path d="M105.076 41.172H103.994L102.256 38.7943C101.83 39.1719 101.379 39.5254 100.904 39.8542C100.428 40.1829 99.928 40.4691 99.4038 40.7112C98.8789 40.9539 98.3407 41.1451 97.7893 41.2855C97.2372 41.4258 96.6774 41.4959 96.1092 41.4959C94.874 41.4959 93.7126 41.291 92.6251 40.881C91.5369 40.4711 90.5867 39.8755 89.7725 39.0935C88.9583 38.3115 88.3155 37.3548 87.8464 36.2227C87.3765 35.0906 87.1416 33.8017 87.1416 32.3566C87.1416 31.0086 87.3765 29.7713 87.8464 28.644C88.3155 27.5174 88.9583 26.5497 89.7725 25.7409C90.5867 24.932 91.5369 24.3041 92.6251 23.8563C93.7126 23.4093 94.874 23.1851 96.1092 23.1851C96.6774 23.1851 97.24 23.2552 97.7976 23.3948C98.3553 23.5351 98.8963 23.7291 99.4212 23.9774C99.9461 24.2257 100.446 24.5166 100.921 24.8509C101.397 25.1851 101.841 25.5462 102.257 25.9348L103.996 23.8804H105.078V41.172H105.076ZM100.567 32.3566C100.567 31.7528 100.449 31.1675 100.215 30.6014C99.9796 30.0347 99.6603 29.534 99.2553 29.0972C98.8517 28.6605 98.3783 28.3104 97.8381 28.0456C97.2964 27.7815 96.7206 27.6495 96.1085 27.6495C95.4965 27.6495 94.9193 27.7519 94.379 27.9569C93.8374 28.1619 93.3675 28.4638 92.9688 28.8627C92.57 29.2616 92.2556 29.7555 92.0263 30.3428C91.7962 30.9302 91.6819 31.6015 91.6819 32.3566C91.6819 33.1118 91.7962 33.7831 92.0263 34.3698C92.2556 34.9578 92.57 35.451 92.9688 35.8499C93.3675 36.2488 93.8374 36.5508 94.379 36.7557C94.92 36.9607 95.4958 37.0631 96.1085 37.0631C96.7213 37.0631 97.2971 36.9311 97.8381 36.667C98.379 36.4029 98.8517 36.0521 99.2553 35.6154C99.6596 35.1786 99.9796 34.6772 100.215 34.1112C100.449 33.5451 100.567 32.9605 100.567 32.3566Z" fill="#2C2C2C"/>
<path d="M111.711 47.771V43.3231L114.202 43.3555C114.639 43.3555 115.06 43.2853 115.465 43.145C115.869 43.0047 116.243 42.8107 116.588 42.5624C116.933 42.3141 117.235 42.0205 117.498 41.6807C117.76 41.3409 117.974 40.9716 118.137 40.5727C117.646 40.7776 117.145 40.9826 116.638 41.1876C116.13 41.3918 115.619 41.495 115.105 41.495C114.023 41.495 113.007 41.3059 112.056 40.929C111.105 40.5514 110.271 40.0149 109.555 39.3195C108.839 38.6242 108.277 37.7775 107.867 36.7796C107.456 35.7823 107.252 34.6632 107.252 33.4232V23.8479H111.711V33.4232C111.711 34.0381 111.801 34.5745 111.982 35.0326C112.162 35.4907 112.404 35.8737 112.711 36.1812C113.016 36.4886 113.375 36.7177 113.785 36.8683C114.195 37.0196 114.634 37.0946 115.105 37.0946C115.575 37.0946 115.999 36.9893 116.409 36.7789C116.819 36.5691 117.177 36.2912 117.483 35.946C117.789 35.6007 118.029 35.21 118.205 34.7733C118.38 34.3365 118.467 33.8861 118.467 33.4225V23.8472H122.976V38.9873C122.965 40.2061 122.724 41.3492 122.254 42.4166C121.784 43.4841 121.142 44.4167 120.328 45.2145C119.513 46.0124 118.565 46.6431 117.483 47.1073C116.402 47.5709 115.243 47.8027 114.008 47.8027L111.713 47.7703L111.711 47.771Z" fill="#2C2C2C"/>
<path d="M147.702 41.1726H143.243V30.1736C143.243 29.8724 143.186 29.5862 143.071 29.3166C142.956 29.0477 142.795 28.8104 142.587 28.6055C142.38 28.4005 142.139 28.2416 141.866 28.1281C141.593 28.0153 141.303 27.9582 140.998 27.9582C140.692 27.9582 140.404 28.0146 140.137 28.1281C139.869 28.2416 139.634 28.4005 139.432 28.6055C139.23 28.8104 139.072 29.0477 138.957 29.3166C138.842 29.5862 138.784 29.8724 138.784 30.1736V41.1726H134.309V30.1736C134.309 29.8724 134.252 29.5862 134.137 29.3166C134.022 29.0477 133.861 28.8104 133.654 28.6055C133.445 28.4005 133.205 28.2416 132.931 28.1281C132.659 28.0153 132.369 27.9582 132.063 27.9582C131.757 27.9582 131.47 28.0146 131.202 28.1281C130.934 28.2416 130.699 28.4005 130.498 28.6055C130.296 28.8104 130.137 29.0477 130.022 29.3166C129.907 29.5862 129.85 29.8724 129.85 30.1736V41.1726H125.374V23.8487H126.456L127.669 25.1755C128.292 24.6576 128.978 24.2559 129.727 23.9705C130.475 23.6851 131.254 23.542 132.063 23.542C132.871 23.542 133.684 23.6933 134.465 23.9952C135.247 24.2972 135.932 24.8199 136.522 25.5641C136.795 25.1982 137.107 24.8852 137.457 24.6259C137.806 24.3673 138.175 24.1569 138.563 23.9952C138.951 23.8336 139.353 23.7181 139.769 23.6472C140.184 23.5771 140.594 23.542 140.998 23.542C141.927 23.542 142.798 23.7146 143.614 24.0599C144.427 24.4052 145.139 24.8763 145.744 25.4754C146.351 26.0737 146.829 26.7773 147.179 27.5862C147.528 28.395 147.704 29.2582 147.704 30.1743V41.1733L147.702 41.1726Z" fill="#2C2C2C"/>
<path d="M166.962 41.172H165.88L164.141 38.7943C163.715 39.1719 163.264 39.5254 162.79 39.8542C162.314 40.1829 161.814 40.4691 161.29 40.7112C160.765 40.9539 160.226 41.1451 159.675 41.2855C159.123 41.4258 158.563 41.4959 157.995 41.4959C156.76 41.4959 155.598 41.291 154.511 40.881C153.423 40.4711 152.472 39.8755 151.658 39.0935C150.844 38.3115 150.201 37.3548 149.732 36.2227C149.262 35.0906 149.027 33.8017 149.027 32.3566C149.027 31.0086 149.262 29.7713 149.732 28.644C150.201 27.5174 150.844 26.5497 151.658 25.7409C152.472 24.932 153.423 24.3041 154.511 23.8563C155.598 23.4093 156.76 23.1851 157.995 23.1851C158.563 23.1851 159.126 23.2552 159.683 23.3948C160.241 23.5351 160.782 23.7291 161.307 23.9774C161.832 24.2257 162.332 24.5166 162.806 24.8509C163.283 25.1851 163.727 25.5462 164.143 25.9348L165.881 23.8804H166.963V41.172H166.962ZM162.453 32.3566C162.453 31.7528 162.335 31.1675 162.1 30.6014C161.865 30.0347 161.546 29.534 161.141 29.0972C160.737 28.6605 160.264 28.3104 159.724 28.0456C159.182 27.7815 158.606 27.6495 157.994 27.6495C157.382 27.6495 156.805 27.7519 156.265 27.9569C155.723 28.1619 155.253 28.4638 154.854 28.8627C154.456 29.2616 154.141 29.7555 153.912 30.3428C153.682 30.9302 153.568 31.6015 153.568 32.3566C153.568 33.1118 153.682 33.7831 153.912 34.3698C154.141 34.9578 154.456 35.451 154.854 35.8499C155.253 36.2488 155.723 36.5508 156.265 36.7557C156.806 36.9607 157.382 37.0631 157.994 37.0631C158.607 37.0631 159.183 36.9311 159.724 36.667C160.265 36.4029 160.737 36.0521 161.141 35.6154C161.545 35.1786 161.865 34.6772 162.1 34.1112C162.335 33.5451 162.453 32.9605 162.453 32.3566Z" fill="#2C2C2C"/>
<path d="M178.167 41.1716C177.085 41.1716 176.069 40.9694 175.117 40.565C174.166 40.1606 173.333 39.6055 172.617 38.8992C171.901 38.1928 171.338 37.3709 170.928 36.4328C170.518 35.4947 170.313 34.4912 170.313 33.4237V28.2798H168.133V23.8801H170.313V16.9575H174.773V23.8801H181.56V28.2798H174.773V33.4237C174.773 33.8873 174.86 34.3213 175.035 34.7264C175.21 35.1308 175.45 35.4843 175.757 35.7856C176.062 36.0875 176.424 36.3276 176.839 36.505C177.254 36.6831 177.697 36.7719 178.167 36.7719H181.56V41.1716H178.167Z" fill="#2C2C2C"/>
<path d="M191.867 41.1716C190.785 41.1716 189.769 40.9694 188.817 40.565C187.867 40.1606 187.033 39.6055 186.317 38.8992C185.601 38.1928 185.038 37.3709 184.628 36.4328C184.218 35.4947 184.014 34.4912 184.014 33.4237V28.2798H181.833V23.8801H184.014V16.9575H188.473V23.8801H195.26V28.2798H188.473V33.4237C188.473 33.8873 188.56 34.3213 188.735 34.7264C188.91 35.1308 189.151 35.4843 189.457 35.7856C189.763 36.0875 190.124 36.3276 190.539 36.505C190.954 36.6831 191.397 36.7719 191.867 36.7719H195.26V41.1716H191.867Z" fill="#2C2C2C"/>
<path d="M202.042 19.1417C202.042 19.5516 201.962 19.934 201.804 20.2903C201.645 20.6458 201.429 20.956 201.157 21.2201C200.883 21.4843 200.563 21.6947 200.197 21.8508C199.831 22.0077 199.44 22.0854 199.025 22.0854C198.609 22.0854 198.218 22.007 197.852 21.8508C197.486 21.6947 197.169 21.4843 196.902 21.2201C196.634 20.956 196.42 20.6458 196.262 20.2903C196.103 19.9347 196.024 19.5516 196.024 19.1417C196.024 18.7317 196.104 18.3624 196.262 18.0013C196.42 17.6402 196.633 17.3273 196.902 17.0632C197.169 16.7991 197.486 16.5886 197.852 16.4318C198.218 16.2757 198.609 16.1973 199.025 16.1973C199.44 16.1973 199.831 16.2757 200.197 16.4318C200.563 16.5886 200.883 16.7984 201.157 17.0632C201.429 17.3273 201.645 17.6402 201.804 18.0013C201.963 18.3631 202.042 18.7428 202.042 19.1417ZM201.272 41.1721H196.763V23.8482H201.272V41.1721Z" fill="#2C2C2C"/>
<path d="M219.018 27.2941L215.739 30.5452C215.575 30.092 215.351 29.6855 215.066 29.3237C214.783 28.9626 214.463 28.6579 214.107 28.4097C213.752 28.1614 213.367 27.9729 212.951 27.8436C212.536 27.7143 212.109 27.6497 211.673 27.6497C211.06 27.6497 210.483 27.7741 209.943 28.0218C209.402 28.27 208.932 28.6174 208.533 29.0651C208.134 29.5129 207.82 30.0438 207.59 30.658C207.36 31.2729 207.246 31.9524 207.246 32.6959C207.246 33.2998 207.36 33.8658 207.59 34.3941C207.82 34.9223 208.134 35.3865 208.533 35.7848C208.932 36.1837 209.402 36.4966 209.943 36.7229C210.484 36.9492 211.06 37.0627 211.673 37.0627C212.109 37.0627 212.531 37.0035 212.934 36.8845C213.339 36.7662 213.719 36.5963 214.074 36.3749C214.429 36.1534 214.747 35.8845 215.025 35.566C215.304 35.2483 215.531 34.8948 215.706 34.5062L218.985 37.7573C218.569 38.3399 218.091 38.8633 217.551 39.3262C217.009 39.7897 216.424 40.1831 215.796 40.5071C215.167 40.8303 214.506 41.0759 213.812 41.243C213.118 41.4101 212.405 41.4934 211.673 41.4934C210.437 41.4934 209.276 41.2643 208.189 40.8063C207.1 40.3482 206.15 39.7203 205.336 38.9217C204.522 38.1239 203.879 37.1906 203.41 36.1231C202.94 35.0557 202.705 33.9133 202.705 32.6946C202.705 31.3678 202.94 30.1284 203.41 28.9743C203.879 27.8209 204.522 26.8154 205.336 25.9577C206.15 25.1007 207.1 24.424 208.189 23.9281C209.276 23.4322 210.437 23.1846 211.673 23.1846C212.405 23.1846 213.123 23.276 213.828 23.4597C214.533 23.6433 215.206 23.9095 215.845 24.2603C216.485 24.611 217.075 25.0395 217.616 25.5464C218.157 26.0533 218.624 26.6359 219.017 27.2934L219.018 27.2941Z" fill="#2C2C2C"/>
</svg>
