<svg width="32" height="32" viewBox="0 0 32 32" fill="none" xmlns="http://www.w3.org/2000/svg">
<path fill-rule="evenodd" clip-rule="evenodd" d="M10.4753 27.9505V27.8536L10.4524 27.7322L10.4295 27.6112L10.4068 27.4415L10.3839 27.272L10.361 27.078L10.3381 26.884L10.3152 26.7143L10.2925 26.5446L10.2696 26.3993L10.2467 26.3022V26.2053L10.2009 26.0356V25.8661L10.1782 25.7207L10.1553 25.5995V25.4539L10.1324 25.3329H10.1095L10.0866 25.4783L10.0639 25.6236L10.0181 25.769L9.97232 25.9387L9.9267 26.1086V26.1327L9.90381 26.2053L9.88092 26.3022L9.83513 26.4236L9.78951 26.5933L9.74372 26.7627L9.67504 26.9325L9.62942 27.1265L9.58363 27.2962L9.51512 27.4656L9.46933 27.6355L9.44644 27.7568L9.40082 27.8536L9.37792 27.9262V27.9505H8.71485V27.9262L8.69195 27.8536L8.66906 27.7568L8.62328 27.6112L8.57765 27.4415L8.50897 27.272L8.39467 26.9083L8.34889 26.7386L8.30326 26.5933L8.25764 26.4477L8.21186 26.351V26.278L8.18896 26.2537L8.16607 26.1086L8.12028 25.9873L8.05177 25.7207L8.02888 25.575L7.98309 25.4539V25.3329H7.9602V25.4783L7.93747 25.648L7.91457 25.7933V25.9387L7.89168 26.1086L7.86879 26.2537V26.278L7.8459 26.3751V26.4962L7.82317 26.6417L7.80027 26.8115L7.77738 27.0052L7.75449 27.1992L7.73159 27.3931L7.70886 27.5628L7.68597 27.8295V27.9262L7.66308 27.9505H7L7.52588 24.2905H8.30326V24.3148L8.32616 24.3876L8.37194 24.4845L8.41757 24.6057L8.46335 24.7754L8.57765 25.1389L8.66906 25.5024L8.73774 25.6721L8.78336 25.842L8.87477 26.1327V26.157L8.92056 26.3267L8.96634 26.472L9.01196 26.6176L9.03502 26.7869L9.08064 26.9325L9.12643 26.7869L9.14932 26.6176L9.19494 26.472L9.24073 26.3267L9.28635 26.1811V26.157L9.30925 26.0843L9.33214 25.9873L9.37792 25.842L9.44644 25.6964L9.49223 25.5024L9.53785 25.3329L9.60653 25.1389L9.67504 24.9449L9.72083 24.7754L9.76645 24.6298L9.8124 24.4845L9.83513 24.3876L9.85802 24.3148L9.88092 24.2905H10.6583L11.1842 27.9505H10.4753ZM12.8303 27.3931V27.9992H12.8989L13.0133 27.9746H13.1047L13.219 27.9262L13.3104 27.9021L13.402 27.8536L13.4934 27.8052L13.5848 27.7322L13.6535 27.6596L13.7449 27.5869L13.7907 27.5145L13.8592 27.4172L13.9277 27.3205L13.9735 27.2233L13.9964 27.1265L14.0422 27.0052L14.0651 26.884L14.0878 26.7627L14.1107 26.6417V26.3751L14.0878 26.2537L14.0651 26.1086L14.0422 25.9873L14.0193 25.8661L13.9735 25.769L13.9277 25.6721L13.8592 25.5995L13.8134 25.5024L13.7449 25.4539L13.6764 25.3812L13.5848 25.3329L13.5163 25.2843L13.4247 25.2358L13.3333 25.2117L13.219 25.1632H13.1276L13.0133 25.1389H12.8303V25.7448H12.9675L13.0818 25.7933L13.1733 25.842L13.2419 25.9146L13.3104 26.0114L13.3562 26.1086L13.3791 26.2537L13.402 26.3993L13.4247 26.569L13.402 26.7143L13.3791 26.8599L13.3562 26.9809L13.3104 27.1023L13.2419 27.1992L13.1961 27.272L13.1047 27.3205L13.0133 27.3689L12.9446 27.3931H12.8303Z" fill="#016881"/>
<path fill-rule="evenodd" clip-rule="evenodd" d="M12.8309 25.7455V25.1396H12.7851L12.6708 25.1639L12.5565 25.1882L12.4422 25.2125L12.3508 25.2608L12.2594 25.3094L12.168 25.3577L12.0764 25.4305L12.0077 25.4791L11.9392 25.5515L11.8707 25.6488L11.802 25.7214L11.7562 25.8181L11.7106 25.9154L11.6648 26.0364L11.6419 26.1335L11.5963 26.2545L11.5732 26.3758V26.909L11.5963 27.0546L11.6192 27.1756L11.6648 27.2727L11.7106 27.3939L11.7562 27.4663L11.802 27.5636L11.8707 27.6362L11.9392 27.7089L12.0077 27.7817L12.0764 27.8302L12.168 27.8786L12.2594 27.9269L12.3508 27.9512L12.4422 27.9753L12.5565 27.9999H12.8309V27.3939H12.7395L12.6252 27.3696L12.5336 27.3213L12.4651 27.2727L12.3966 27.1999L12.3508 27.103L12.305 26.9817L12.2823 26.8607L12.2594 26.715V26.3758L12.305 26.2304L12.3508 26.0851L12.3966 25.988L12.488 25.8911L12.5565 25.8181L12.6481 25.7698L12.7395 25.7455H12.8309ZM18.7984 27.4423V27.9999H19.1871L19.3243 27.9753L19.4615 27.9512L19.5758 27.9028L19.713 27.8786L19.8273 27.8302V27.6846L19.7815 27.418V27.2727L19.6443 27.3213L19.53 27.3696L19.393 27.418L19.2785 27.4423H18.7984ZM18.7984 26.2061V26.691H19.8958L19.9187 26.5698V26.1335L19.8958 26.0121L19.8731 25.9154L19.8273 25.8181L19.8044 25.7214L19.7586 25.6243L19.6901 25.5274L19.6443 25.4546L19.5758 25.382L19.4844 25.3336L19.393 25.2608L19.3014 25.2366L19.1871 25.1882L19.0957 25.1639L18.9585 25.1396H18.7984V25.6729L18.8213 25.6488L18.9585 25.6729L19.0499 25.7214L19.1413 25.794L19.21 25.9154L19.2558 26.0364V26.2061H18.7984Z" fill="#016881"/>
<path fill-rule="evenodd" clip-rule="evenodd" d="M18.7974 25.6725V25.1393H18.7289L18.6145 25.1635L18.5002 25.1878L18.3859 25.2121L18.2944 25.2604L18.2029 25.309L18.1115 25.3816L18.0429 25.4301L17.9744 25.5028L17.9058 25.5998L17.8371 25.6725L17.7915 25.7694L17.7457 25.8907L17.7 25.9876L17.6772 26.109L17.6541 26.23L17.6314 26.3513V26.8844L17.6541 27.0055L17.6772 27.1269L17.7 27.2236L17.7457 27.3209L17.7915 27.4176L17.8371 27.5148L17.8829 27.5873L17.9514 27.6599L18.0201 27.7326L18.0887 27.7813L18.1801 27.8298L18.2716 27.8782L18.3631 27.9265L18.4545 27.9508L18.5688 27.9749L18.6602 27.9995H18.7974V27.4419L18.7518 27.4176L18.6373 27.3935L18.5459 27.3209L18.4774 27.2723L18.4087 27.1752L18.3631 27.0783L18.3172 26.957L18.2944 26.836V26.6906H18.7974V26.2057H18.3172L18.3402 26.036L18.3859 25.915L18.4774 25.8177L18.5688 25.721L18.6831 25.6725H18.7974ZM20.3064 25.6967L20.2608 25.6239L20.2379 25.5511V25.3816L20.2608 25.309L20.2837 25.2362H20.4207L20.5352 25.2121H20.6722L20.8096 25.1878H21.3126V25.3573L21.2897 25.5511L21.2668 25.7451L21.3126 25.6484L21.3811 25.527L21.4496 25.4301L21.5184 25.3332L21.6097 25.2604L21.7014 25.2121L21.8155 25.1635L21.9529 25.1393H22.0898V25.2362L22.067 25.4787V25.8424L21.9529 25.8177H21.8612L21.7699 25.8424L21.6782 25.8665L21.6097 25.915L21.564 25.9634L21.4955 26.036L21.4496 26.1331L21.404 26.2541L21.3811 26.3754L21.3582 26.4966V26.6663L21.3353 26.836V27.9508H20.6951V25.7451L20.5579 25.721L20.4436 25.6967H20.3064ZM24.8565 27.9995H24.6508L24.4679 27.9749L24.3076 27.9508V27.5148L24.3305 27.3692L24.445 27.4176L24.582 27.4419H24.7421L24.8794 27.466L25.0621 27.4419L25.1995 27.3692L25.2678 27.2966L25.3139 27.1752L25.2907 27.1026L25.2678 27.03L25.2451 26.9813L25.1995 26.957L25.1309 26.9086L25.0852 26.8844L25.0165 26.836L24.9251 26.8119L24.8565 26.7873L24.7877 26.763L24.6965 26.7147L24.6279 26.6906L24.5591 26.642L24.4906 26.5937L24.4221 26.5207L24.3534 26.448L24.3076 26.3513L24.2849 26.2541L24.262 26.1573V25.915L24.2849 25.8177L24.3076 25.721L24.3534 25.6239L24.3993 25.5511L24.445 25.4787L24.5364 25.4059L24.6049 25.3332L24.7194 25.2847L24.8106 25.2362L24.9251 25.1878L25.0621 25.1635L25.1995 25.1393H25.5196L25.6795 25.1635L25.8167 25.1878V25.7451L25.6567 25.721L25.4966 25.6725H25.3366L25.1537 25.6967L25.0392 25.7451L24.9707 25.8424L24.948 25.9634V26.0117L24.9707 26.0847L25.0165 26.1331L25.0621 26.1573L25.108 26.2057L25.1766 26.23L25.2451 26.2541L25.3139 26.3026L25.4052 26.327L25.4737 26.3513L25.5654 26.3997L25.6338 26.448L25.7023 26.4966L25.7711 26.5449L25.8396 26.6179L25.9082 26.6906L25.9538 26.763L25.977 26.8603L25.9997 26.9813V27.1995L25.977 27.2966L25.9538 27.3935L25.9082 27.4902L25.8625 27.5632L25.794 27.6599L25.7252 27.7326L25.6567 27.7813L25.5654 27.8298L25.4737 27.8782L25.3595 27.9265L25.2451 27.9749H25.108L24.9936 27.9995H24.8565ZM15.4135 25.1878V25.527L15.3908 25.6967L15.4593 25.5998L15.5278 25.4787L15.5965 25.4059L15.6879 25.3332L15.7793 25.2604L15.8938 25.2121L16.0081 25.1635L16.1451 25.1393H16.4195L16.5338 25.1635L16.6483 25.2121L16.7397 25.2604L16.8082 25.3332L16.8769 25.4059L16.9454 25.4787L16.9683 25.5754L17.0141 25.6725L17.037 25.7936V27.9508H16.3968V26.1814L16.3739 26.036L16.351 25.915L16.2823 25.8177L16.1909 25.7451L16.0766 25.721L15.9623 25.7451L15.8709 25.7694L15.7793 25.8424L15.7108 25.915L15.6421 25.9876L15.5736 26.109L15.5278 26.2057L15.4822 26.3513V26.4723L15.4593 26.6179V27.9508H14.7962V25.7451L14.6819 25.721L14.5447 25.6967H14.4075L14.3847 25.6239L14.3618 25.5511L14.3389 25.4542L14.3618 25.3816L14.3847 25.309L14.4075 25.2362H14.5218L14.659 25.2121H14.7962L14.9105 25.1878H15.4135ZM23.3247 24.8484L23.1873 24.8241L23.0732 24.7757L23.0043 24.6788L22.9358 24.5575L22.9131 24.4121L22.9358 24.2909L23.0043 24.1697L23.0732 24.0728L23.1873 24.0243L23.3247 24L23.4616 24.0243L23.5762 24.0728L23.6674 24.1697L23.713 24.2909L23.7363 24.4121L23.713 24.5575L23.6674 24.6788L23.5762 24.7757L23.4616 24.8241L23.3247 24.8484ZM23.6674 25.1878H23.1417L23.0043 25.2121H22.8673L22.7301 25.2362H22.616L22.5699 25.309L22.5471 25.3816V25.5511L22.5699 25.6239L22.616 25.6967H22.7528L22.8902 25.721L23.0043 25.7451V27.9508H23.6674V25.1878Z" fill="#016881"/>
<path fill-rule="evenodd" clip-rule="evenodd" d="M20.7022 6.15834L20.5251 6.02868L20.3047 5.85569L20.0398 5.72572L19.8191 5.59605L19.5542 5.46608L19.2889 5.37974L19.0243 5.29309L18.7152 5.20675L18.4506 5.16343L18.1415 5.07678H17.9204L17.6558 5.03346H16.64L16.3312 5.07678L16.0663 5.1201L15.8017 5.16343L15.5365 5.24977L15.2716 5.33642L15.0069 5.42306L14.7417 5.50941L14.4765 5.63938L14.2561 5.76904L13.9912 5.89901L13.7708 6.02868L13.5055 6.15834L13.2851 6.33164L13.0199 6.50463L12.7995 6.67792L12.5785 6.89393L12.402 7.06722L12.2251 7.24021L12.0047 7.45652L11.8718 7.62951L11.6953 7.84613L11.5191 8.06244L11.3862 8.23543L11.2539 8.45174L11.1216 8.66806L10.9886 8.88437L10.9005 9.10099L10.7682 9.3173L10.6801 9.53361L10.5472 9.79325L10.4591 10.0096L10.371 10.2692L10.2829 10.5288L10.2387 10.7885L10.15 11.0481L10.1058 11.2644L10.0616 11.5241L10.0177 11.7837V12.2596L9.97348 12.4759V13.2115L10.0177 13.4712V13.6875L10.0616 13.9471L10.1058 14.2068L10.15 14.4231L10.2387 14.6827L10.2829 14.9423L10.371 15.1587L10.4591 15.375L10.5472 15.5913L10.6359 15.8076L10.7243 16.0239L10.8124 16.2402L10.9447 16.4568L11.0335 16.6298L11.1658 16.8464L11.2981 17.0624L11.4304 17.2354L11.563 17.4087L11.6953 17.5817L11.8718 17.755L12.3132 18.274L12.6224 18.5772L12.9318 18.8796L13.108 19.0099L13.2851 19.1395L13.4613 19.2692L13.6385 19.3995L13.8147 19.5288L13.9912 19.6585L14.168 19.7451L14.3445 19.8751L14.5655 19.9618L15.1392 20.2647L15.3154 20.3511L15.5365 20.4377L15.7569 20.5241L15.9782 20.5671L16.1986 20.6537L16.4196 20.6973L16.64 20.7407L16.8611 20.827L17.0815 20.8703H17.3025L17.5229 20.9134L17.7439 20.9567H17.9649L18.1857 21H19.0685L19.2889 20.9567H19.5099L19.7303 20.9134L19.9514 20.8703L20.1718 20.827L20.3931 20.7837L20.6141 20.7407L20.8784 20.6973L21.0995 20.6104L21.3202 20.5671L21.497 20.4807L21.7174 20.3944L21.9384 20.308L22.1588 20.2208L22.336 20.0914L22.5564 20.0048L22.7326 19.8751L22.9539 19.7882L23.1301 19.6585L23.3069 19.5288L23.4834 19.3995L23.6602 19.2692L23.8368 19.0962L24.0129 18.9665L24.1901 18.7932L24.3663 18.6636L24.4986 18.4903L24.6757 18.3173L24.9848 17.971L25.1171 17.7983L25.2494 17.6247L25.3824 17.4521L25.5144 17.2354L25.6028 17.0624L25.7351 16.8464L25.8238 16.6298L25.9561 16.4138V16.3699L26 16.2835V15.8939L25.9561 15.8076L25.9119 15.7209V15.6346L25.8677 15.548L25.779 15.5049L25.7351 15.4616L25.6909 15.4183L25.6467 15.375L25.5586 15.3316H25.3375L25.2933 15.375L25.2494 15.4183L25.2052 15.4616L25.1614 15.5049L25.0291 15.7209L24.9406 15.8939L24.808 16.1105L24.6315 16.2835L24.3663 16.6731L24.1901 16.8464L24.0572 16.9761L23.881 17.1488L23.7045 17.3224L23.5276 17.4521L23.3511 17.5817L23.1743 17.755L22.9539 17.8847L22.7326 18.0143L22.5564 18.1007L22.336 18.231L22.1149 18.3173L21.8939 18.4036L21.6735 18.4903L21.4522 18.5772L21.2318 18.6636L21.0107 18.7069L20.7464 18.7499L20.5251 18.8366H20.2608L20.0398 18.8796H19.8191L19.598 18.9229H18.9362L18.7152 18.8796H18.4948L18.2738 18.8366H18.0534L17.8323 18.7932L17.6116 18.7069L17.3906 18.6636L17.1702 18.6203L16.9492 18.5339L16.7288 18.447L16.5077 18.3606L16.2873 18.274L16.1102 18.1876L15.8898 18.1007L15.713 18.0143L15.5365 17.8847L15.3603 17.755L15.1392 17.6681L14.9621 17.5384L14.7859 17.4087L14.6094 17.2791L14.4326 17.1488L14.3003 16.9761L14.1238 16.8464L13.947 16.6731L13.8147 16.5002L13.6385 16.3269L13.5055 16.1539L13.1967 15.8076L13.0641 15.6346L12.9318 15.375L12.7547 15.1587L12.6224 14.9423L12.5343 14.6827L12.402 14.4231L12.3132 14.1634L12.2251 13.9471L12.137 13.6875L12.0928 13.4278L12.0047 13.1682L11.9605 12.9086L11.9163 12.6489V12.173L11.8718 11.9134L11.9163 11.6537V11.3941L11.9605 11.1344L12.0047 10.8748L12.0486 10.5722L12.137 10.3125L12.2251 10.0096L12.3132 9.74992L12.402 9.44696L12.5343 9.18733L12.6666 8.928L12.8434 8.66806L12.9757 8.40873L13.1522 8.19211L13.329 7.97579L13.5055 7.75948L13.6824 7.54317L13.8589 7.37018L14.0799 7.19689L14.3003 7.0239L14.3884 6.93725L14.5213 6.85091L14.6094 6.80759L14.7417 6.72094L14.8298 6.6346L14.9621 6.59127L15.0512 6.50463L15.1831 6.46161L15.3154 6.37496L15.4042 6.33164L15.5365 6.28831L15.6249 6.20167L15.8017 6.15834L15.8898 6.11532L16.0663 6.072L16.1986 6.02868L16.3312 5.98535L16.4635 5.94203H16.5958L16.7288 5.89901H16.8611L16.9934 5.85569H17.2586L17.1257 5.89901L17.0373 5.94203L16.9053 5.98535L16.8169 6.02868L16.6839 6.072L16.5958 6.11532L16.4635 6.20167L16.3754 6.2453L16.2873 6.33164L16.1544 6.41828L16.0663 6.46161L15.934 6.54795L15.8898 6.59127L15.8017 6.67792L15.7569 6.72094L15.713 6.80759L15.6249 6.85091L15.5807 6.93725L15.5365 6.98057L15.4484 7.06722L15.2716 7.28353L15.2273 7.37018L15.095 7.58649L14.9621 7.80281L14.8298 8.01912L14.7417 8.27875L14.6536 8.49507L14.6094 8.7547L14.5213 9.01434L14.4765 9.23065L14.4326 9.49029V10.3989L14.4765 10.8748V11.0914L14.5213 11.3077L14.6094 11.5241L14.6536 11.7837L14.7417 12L14.8298 12.173L14.9182 12.3893L15.0069 12.6056L15.095 12.8219L15.1831 12.9949L15.3154 13.2115L15.4484 13.3845L15.5807 13.6011L15.713 13.7738L16.0221 14.1201L16.1986 14.2498L16.3312 14.4231L16.5077 14.5961L16.6839 14.726L16.9053 14.899L17.0815 15.0287L17.3025 15.1153L17.479 15.2453L17.7 15.375L17.9204 15.4616L18.1415 15.548L18.3619 15.6346L18.5829 15.7209L18.8475 15.8076L19.1127 15.8509L19.3776 15.9373L19.6423 15.9809H19.9075L20.1279 16.0239H21.0556L21.3202 15.9809L21.6293 15.9373L21.8939 15.8509L22.1588 15.8076L22.4241 15.7209L22.6445 15.5913L22.9097 15.5049L23.1301 15.375L23.3511 15.2453L23.5715 15.1153L23.7926 14.9857L23.9691 14.8124L24.2343 14.6394L24.4105 14.4231L24.6315 14.2068L24.808 13.9471L24.9848 13.7308L25.1171 13.5145L25.2494 13.2549L25.3824 12.9949L25.4705 12.7786L25.5586 12.5193L25.6467 12.2596L25.6909 12L25.779 11.6537L25.8238 11.3077V10.2259L25.779 9.96624V9.7066L25.6909 9.23065L25.5586 8.7547L25.5144 8.53839L25.4263 8.32208L25.3375 8.06244L25.2494 7.84613L25.1614 7.58649L25.0729 7.37018L24.9406 7.15387L24.808 6.93725L24.7196 6.72094L24.5873 6.50463L24.4547 6.33164L24.2782 6.11532L24.1459 5.89901L24.0129 5.72572L23.8368 5.55273L23.7045 5.37974L23.5276 5.16343L23.3511 4.99044L23.1743 4.81714L22.9978 4.64416L22.7774 4.51418L22.6006 4.3412L22.4241 4.16821L22.203 4.03824L21.7616 3.73558L21.5412 3.60561L21.3202 3.47595H21.276L21.2318 3.43262H20.9668L20.9226 3.47595L20.8784 3.51896V3.64894L20.9226 3.69226V3.73558L20.9668 3.7786V3.82192L21.0107 3.86525H21.0556L21.0995 3.90857L21.1437 3.9519L21.3641 4.08156L21.5851 4.21122L21.8055 4.3412L22.0268 4.51418L22.2472 4.64416L22.4241 4.81714L22.6445 4.99044L22.8216 5.16343L22.9978 5.33642L23.1743 5.50941L23.3511 5.6827L23.4834 5.85569L23.6602 6.072L23.7926 6.28831L23.9249 6.46161L24.0572 6.67792L24.1901 6.89393L24.3224 7.11024L24.5434 7.54317L24.6315 7.80281L24.7196 8.01912L24.808 8.23543L24.8519 8.49507L24.9406 8.71138L24.9848 8.928L25.0291 9.18733L25.0729 9.40395V9.66358L25.1171 9.8799V10.3555L25.0729 10.6152V10.9181L25.0291 11.1778L24.9406 11.4807L24.8519 11.7837L24.7638 12.0433L24.6315 12.3027L24.4986 12.5626L24.3224 12.8219L24.1459 13.0819L23.9249 13.2982L23.6602 13.5145L23.3953 13.7308L23.1301 13.9038L22.8216 14.0768L22.5122 14.2498L22.2472 14.3367L21.9826 14.3797L21.7174 14.4661L21.4522 14.5097L21.1879 14.553H20.2608L19.9514 14.5097L19.6423 14.4231L19.3338 14.3367L19.0243 14.2498L18.8475 14.2068L18.7152 14.1201L18.5387 14.0768L18.4061 13.9904L18.2296 13.9038L18.0973 13.8175L17.9649 13.7308L17.7881 13.6011L17.6558 13.5145L17.3906 13.2982L17.3025 13.1682L17.5671 13.2982L17.7881 13.3845L18.0534 13.4712L18.3619 13.5575L18.6271 13.6011L18.892 13.6442H19.6865L19.9514 13.6011H20.2166L20.437 13.5145L20.7464 13.4278L21.0107 13.3412L21.2318 13.2549L21.497 13.1249L21.8055 12.9519L22.0707 12.7786L22.336 12.5626L22.5564 12.3463L22.7774 12.1297L22.9539 11.87L23.1301 11.6104L23.3069 11.3508L23.4392 11.0914L23.5276 10.8318L23.6157 10.5288L23.7045 10.2692L23.7487 10.0096L23.7926 9.7066V9.18733L23.7487 8.928L23.7045 8.62504L23.6602 8.3651L23.6157 8.10577L23.5276 7.84613L23.4392 7.62951L23.3511 7.37018L23.2188 7.15387L23.1301 6.93725L22.9978 6.72094L22.8655 6.50463L22.7326 6.28831L22.6006 6.11532L22.4241 5.89901L22.1149 5.55273L21.9826 5.37974L21.8055 5.20675L21.6293 5.03346L21.4083 4.86047L21.2318 4.7308L21.0556 4.55751L20.8345 4.42784L20.6141 4.29787L20.3931 4.16821L20.2166 4.03824L19.9514 3.90857L19.7303 3.7786L19.5099 3.69226L19.2889 3.60561L19.0685 3.51896L18.8475 3.43262L18.6271 3.34598L18.3619 3.30265L18.1415 3.21631L17.8762 3.17299L17.6558 3.12966L17.3906 3.08634H17.1702L16.9492 3.04332H16.6839L16.4635 3H15.3154L15.095 3.04332H14.874L14.6094 3.08634L14.3884 3.12966H14.168L13.947 3.21631H13.7266L13.4613 3.30265L13.2409 3.34598L13.0199 3.43262L12.7995 3.47595L12.5785 3.56229L12.3132 3.64894L12.0928 3.73558L11.8718 3.82192L11.6514 3.90857L11.4304 3.99491L11.21 4.12488L11.0335 4.21122L10.8124 4.3412L10.6359 4.42784L10.4591 4.55751L10.2387 4.68748L10.0616 4.81714L9.88538 4.94712L9.70824 5.07678L9.48784 5.20675L9.31165 5.33642L9.13451 5.50941L8.95832 5.63938L8.6492 5.98535L8.47269 6.11532L8.29586 6.28831L8.16356 6.46161L7.98642 6.6346L7.85412 6.80759L7.72213 6.98057L7.58983 7.15387L7.2365 7.67314L7.10357 7.88945L7.01547 8.06244L6.88317 8.23543L6.79507 8.45174L6.70666 8.62504L6.57373 8.84135L6.48563 9.05766L6.39754 9.27398L6.30944 9.49029L6.26461 9.7066L6.17651 9.92291L6.1323 10.1392L6.04421 10.3555L6 10.5722V10.8748L6.04421 10.9615L6.1323 11.0481L6.2204 11.0914L6.30944 11.1778L6.39754 11.2211L6.52984 11.2644H6.97127L7.14809 11.2211L7.28039 11.1778L7.41269 11.1344L7.58983 11.0914L7.67793 11.0048L7.81023 10.9615L7.89833 10.8748L7.98642 10.7885L8.07546 10.7018L8.16356 10.5722L8.20745 10.4855V10.3989L8.25166 10.1392L8.29586 9.92291L8.38396 9.7066L8.42785 9.49029L8.47269 9.27398L8.56078 9.05766L8.6492 8.84135L8.73729 8.62504L8.82539 8.40873L8.91412 8.23543L9.04642 8.01912L9.13451 7.84613L9.26682 7.62951L9.35554 7.45652L9.48784 7.28353L9.62015 7.11024L9.75308 6.93725L9.88538 6.76426L10.1945 6.41828L10.371 6.2453L10.5472 6.072L10.7243 5.89901L10.8566 5.76904L11.0777 5.59605L11.2539 5.46608L11.4304 5.33642L11.7837 5.07678L12.0047 4.94712L12.1809 4.86047L12.6224 4.60083L12.8434 4.51418L13.0641 4.42784L13.2851 4.29787L13.5055 4.25486L13.7266 4.16821L13.947 4.08156L14.168 4.03824L14.4326 3.9519L14.6536 3.90857L14.874 3.86525L15.095 3.82192L15.3603 3.7786H15.5807L15.8017 3.73558H16.0663L16.2873 3.69226H16.5519L16.773 3.73558H17.2586L17.479 3.7786L17.7881 3.82192L18.0534 3.86525L18.3177 3.90857L18.5829 3.99491L18.8475 4.08156L19.1127 4.16821L19.3338 4.25486L19.5542 4.3412L19.8191 4.47117L20.0398 4.60083L20.2166 4.7308L20.437 4.86047L20.658 4.99044L20.8345 5.1201L21.0556 5.29309L21.2318 5.46608L21.4083 5.63938L21.5851 5.81237L21.7174 5.98535L21.8939 6.15834L22.0268 6.33164L22.1588 6.54795L22.2911 6.76426L22.4241 6.98057L22.5122 7.19689L22.6445 7.4132L22.7326 7.62951L22.8216 7.88945L22.8655 8.10577L22.9097 8.32208L22.9539 8.53839L22.9978 8.7547V9.18733L22.9539 9.40395V9.62026L22.8655 9.83657L22.8216 10.0529L22.7326 10.2692L22.6445 10.4855L22.5122 10.7018L22.3799 10.9181L22.2472 11.0914L22.0707 11.2644L21.8939 11.4374L21.7174 11.6104L21.497 11.7837L21.276 11.9134L21.0107 12L20.7464 12.1297L20.4812 12.2163L20.2166 12.2596L19.9514 12.3027L19.7303 12.3463H19.2447L19.0243 12.3027L18.7594 12.2596L18.5387 12.2163L18.2738 12.1297L18.0534 12.0433L17.8323 11.9134L17.6116 11.7837L17.3906 11.6104L17.1702 11.4807L16.9492 11.2644L16.773 11.0914L16.5958 10.9181L16.4635 10.7018L16.2873 10.4855L16.1986 10.2692L16.1102 10.0529L16.0221 9.79325L15.9782 9.53361L15.934 9.23065V8.79803L15.9782 8.58171L16.0221 8.45174L16.0663 8.32208L16.1102 8.23543L16.1986 8.14909L16.2431 8.01912L16.3312 7.84613L16.4635 7.62951L16.64 7.4132L16.8169 7.24021L16.9934 7.06722L17.1702 6.93725L17.4348 6.76426L17.7 6.67792L17.9649 6.54795L18.2738 6.50463L18.5387 6.41828H19.4218L19.7303 6.50463L20.0837 6.59127L20.3931 6.76426H20.437L20.4812 6.80759H20.7464L20.7903 6.76426H20.8345L20.8784 6.72094V6.67792L20.9226 6.6346V6.41828L20.8784 6.37496V6.33164L20.8345 6.28831L20.7903 6.2453L20.7464 6.20167L20.7022 6.15834Z" fill="#05B6C8"/>
</svg>
