<svg xmlns="http://www.w3.org/2000/svg" width="16" height="16" viewBox="0 0 16 16" fill="none">
<path d="M1.6665 7.99984C1.6665 5.01428 1.6665 3.52149 2.594 2.594C3.52149 1.6665 5.01428 1.6665 7.99984 1.6665C10.9854 1.6665 12.4782 1.6665 13.4057 2.594C14.3332 3.52149 14.3332 5.01428 14.3332 7.99984C14.3332 10.9854 14.3332 12.4782 13.4057 13.4057C12.4782 14.3332 10.9854 14.3332 7.99984 14.3332C5.01428 14.3332 3.52149 14.3332 2.594 13.4057C1.6665 12.4782 1.6665 10.9854 1.6665 7.99984Z" stroke="#565865" stroke-width="1.25" stroke-linejoin="round"/>
<path d="M4.6665 11.3332L11.3332 4.6665M5.99984 4.6665V5.99984M5.99984 5.99984L5.99984 7.33317M5.99984 5.99984L7.33317 5.99984M5.99984 5.99984L4.6665 5.99984M11.3332 9.99984L8.6665 9.99984" stroke="#565865" stroke-width="1.25" stroke-linecap="round" stroke-linejoin="round"/>
</svg>